<?xml version="1.0" encoding="utf-8"?>
<!-- Generator: Adobe Illustrator 16.0.0, SVG Export Plug-In . SVG Version: 6.00 Build 0)  -->
<!DOCTYPE svg PUBLIC "-//W3C//DTD SVG 1.1//EN" "http://www.w3.org/Graphics/SVG/1.1/DTD/svg11.dtd">
<svg version="1.1" id="Layer_1" xmlns="http://www.w3.org/2000/svg" xmlns:xlink="http://www.w3.org/1999/xlink" x="0px" y="0px"
	 width="1400px" height="980px" viewBox="0 0 1400 980" enable-background="new 0 0 1400 980" xml:space="preserve">
<g>
	<g>
		<g>
			<rect fill="#FFFFFF" width="1400" height="980"/>
		</g>
	</g>
	<g>
		<g>
			<polygon fill="#9EC860" points="96.3,666.9 96.3,766.7 168.7,766.7 180.4,666.9 			"/>
			<path d="M168.7,769.2H96.3c-1.4,0-2.5-1.1-2.5-2.5v-99.8c0-1.4,1.1-2.5,2.5-2.5h84.1c0.7,0,1.4,0.3,1.9,0.8
				c0.5,0.5,0.7,1.3,0.6,2L171.2,767C171,768.2,170,769.2,168.7,769.2z M98.8,764.2h67.7l11.1-94.8H98.8V764.2z"/>
		</g>
		<g>
			<polygon fill="#D1D3D4" points="180.4,666.9 168.7,766.7 273,766.7 261.3,666.9 			"/>
			<path d="M273,769.2H168.7c-0.7,0-1.4-0.3-1.9-0.8c-0.5-0.5-0.7-1.2-0.6-2l11.7-99.8c0.1-1.3,1.2-2.2,2.5-2.2h80.9
				c1.3,0,2.3,1,2.5,2.2l11.7,99.8c0.1,0.7-0.1,1.4-0.6,2C274.4,768.9,273.7,769.2,273,769.2z M171.5,764.2h98.7l-11.1-94.8h-76.4
				L171.5,764.2z"/>
		</g>
		<g>
			<polygon fill="#9EC860" points="273,766.7 345.4,766.7 345.4,666.9 261.3,666.9 			"/>
			<path d="M345.4,769.2H273c-1.3,0-2.3-1-2.5-2.2l-11.7-99.8c-0.1-0.7,0.1-1.4,0.6-2c0.5-0.5,1.2-0.8,1.9-0.8h84.1
				c1.4,0,2.5,1.1,2.5,2.5v99.8C347.9,768.1,346.8,769.2,345.4,769.2z M275.2,764.2h67.7v-94.8h-78.8L275.2,764.2z"/>
		</g>
		<g>
			<polygon fill="#FFFFFF" points="96.3,440.1 96.3,666.9 180.4,666.9 261.3,666.9 345.4,666.9 345.4,440.1 			"/>
			<path d="M345.4,669.4H96.3c-1.4,0-2.5-1.1-2.5-2.5V440.1c0-1.4,1.1-2.5,2.5-2.5h249.2c1.4,0,2.5,1.1,2.5,2.5v226.7
				C347.9,668.3,346.8,669.4,345.4,669.4z M98.8,664.4h244.2V442.6H98.8V664.4z"/>
		</g>
	</g>
	<g>
		<g>
			<path fill="#D1D3D4" d="M1006.2,454.9c0,11,9,20.1,20.1,20.1h186.9c11,0,20.1-9,20.1-20.1v-28.3h-227.1V454.9z"/>
			<path d="M1213.2,477.5h-186.9c-12.4,0-22.6-10.1-22.6-22.6v-28.3c0-1.4,1.1-2.5,2.5-2.5h227.1c1.4,0,2.5,1.1,2.5,2.5v28.3
				C1235.8,467.3,1225.6,477.5,1213.2,477.5z M1008.7,429.1v25.8c0,9.7,7.9,17.6,17.6,17.6h186.9c9.7,0,17.6-7.9,17.6-17.6v-25.8
				H1008.7z"/>
		</g>
		<g>
			<path fill="#D1D3D4" d="M1233.3,136.5c0-11-9-20.1-20.1-20.1h-186.9c-11,0-20.1,9-20.1,20.1v18.4h227.1V136.5z"/>
			<path d="M1233.3,157.4h-227.1c-1.4,0-2.5-1.1-2.5-2.5v-18.4c0-12.4,10.1-22.6,22.6-22.6h186.9c12.4,0,22.6,10.1,22.6,22.6v18.4
				C1235.8,156.2,1234.6,157.4,1233.3,157.4z M1008.7,152.3h222.1v-15.9c0-9.7-7.9-17.6-17.6-17.6h-186.9c-9.7,0-17.6,7.9-17.6,17.6
				V152.3z"/>
		</g>
		<g>
			<path d="M1233.3,429.1h-227.1c-1.4,0-2.5-1.1-2.5-2.5V154.8c0-1.4,1.1-2.5,2.5-2.5h227.1c1.4,0,2.5,1.1,2.5,2.5v271.7
				C1235.8,428,1234.6,429.1,1233.3,429.1z M1008.7,424.1h222.1V157.4h-222.1V424.1z"/>
		</g>
	</g>
	<g>
		<path fill="#FFFFFF" d="M1133.6,450.8c0,7.7-6.2,13.9-13.9,13.9c-7.7,0-13.9-6.2-13.9-13.9c0-7.7,6.2-13.9,13.9-13.9
			C1127.4,436.9,1133.6,443.1,1133.6,450.8z"/>
		<path d="M1119.7,467.1c-9,0-16.4-7.3-16.4-16.4c0-9,7.3-16.4,16.4-16.4c9,0,16.4,7.3,16.4,16.4
			C1136.1,459.8,1128.8,467.1,1119.7,467.1z M1119.7,439.4c-6.3,0-11.4,5.1-11.4,11.4c0,6.3,5.1,11.4,11.4,11.4
			c6.3,0,11.4-5.1,11.4-11.4C1131.1,444.5,1126,439.4,1119.7,439.4z"/>
	</g>
	<g>
		<path d="M1148.7,138.1h-58c-1.4,0-2.5-1.1-2.5-2.5s1.1-2.5,2.5-2.5h58c1.4,0,2.5,1.1,2.5,2.5S1150.1,138.1,1148.7,138.1z"/>
	</g>
	<g>
		<path d="M1177.2,144.8c-5.1,0-9.2-4.1-9.2-9.2s4.1-9.2,9.2-9.2c5.1,0,9.2,4.1,9.2,9.2S1182.2,144.8,1177.2,144.8z M1177.2,131.4
			c-2.3,0-4.2,1.9-4.2,4.2s1.9,4.2,4.2,4.2c2.3,0,4.2-1.9,4.2-4.2S1179.5,131.4,1177.2,131.4z"/>
	</g>
	<g>
		<path fill="#D1D3D4" d="M971.8,662.8h-34.4v142.9c0,19,15.4,34.4,34.4,34.4c19,0,34.4-15.4,34.4-34.4V662.8H971.8z"/>
		<path d="M971.8,842.7c-20.4,0-36.9-16.6-36.9-36.9V662.8c0-1.4,1.1-2.5,2.5-2.5h68.8c1.4,0,2.5,1.1,2.5,2.5v142.9
			C1008.7,826.1,992.1,842.7,971.8,842.7z M939.9,665.3v140.4c0,17.6,14.3,31.9,31.9,31.9s31.9-14.3,31.9-31.9V665.3H939.9z"/>
	</g>
	<g>
		<path d="M880.6,697.1H489.3c-37.3,0-67.7-30.4-67.7-67.7V378.5c0-37.3,30.4-67.7,67.7-67.7h391.3c37.3,0,67.7,30.4,67.7,67.7
			v250.8C948.3,666.7,917.9,697.1,880.6,697.1z M489.3,315.8c-34.6,0-62.7,28.1-62.7,62.7v250.8c0,34.6,28.1,62.7,62.7,62.7h391.3
			c34.6,0,62.7-28.1,62.7-62.7V378.5c0-34.6-28.1-62.7-62.7-62.7H489.3z"/>
	</g>
	<g>
		<g>
			<polygon fill="#00C1F8" points="708.9,567.6 774.8,501.7 895.7,622.6 895.7,363.5 474.2,363.5 474.2,616.9 616.2,474.9 			"/>
			<path d="M895.7,625.1c-0.7,0-1.3-0.3-1.8-0.7L774.8,505.3l-64.1,64.1c-0.9,0.9-2.6,0.9-3.5,0l-90.9-90.9L476,618.7
				c-0.7,0.7-1.8,0.9-2.7,0.5c-0.9-0.4-1.5-1.3-1.5-2.3V363.5c0-1.4,1.1-2.5,2.5-2.5h421.4c1.4,0,2.5,1.1,2.5,2.5v259.1
				c0,1-0.6,1.9-1.5,2.3C896.3,625,896,625.1,895.7,625.1z M774.8,499.2c0.7,0,1.3,0.3,1.8,0.7l116.6,116.6V366H476.7v244.9
				l137.7-137.7c0.9-0.9,2.6-0.9,3.5,0l90.9,90.9L773,500C773.5,499.5,774.1,499.2,774.8,499.2z"/>
		</g>
		<g>
			<polygon fill="#D1D3D4" points="774.8,501.7 708.9,567.6 616.2,474.9 474.2,616.9 474.2,644.4 895.7,644.4 895.7,622.6 			"/>
			<path d="M895.7,646.9H474.2c-1.4,0-2.5-1.1-2.5-2.5v-27.5c0-0.7,0.3-1.3,0.7-1.8l142-142c1-1,2.6-1,3.5,0l90.9,90.9L773,500
				c0.9-0.9,2.6-0.9,3.5,0l120.8,120.8c0.5,0.5,0.7,1.1,0.7,1.8v21.9C898.2,645.8,897,646.9,895.7,646.9z M476.7,641.9h416.4v-18.3
				L774.8,505.3l-64.1,64.1c-0.9,0.9-2.6,0.9-3.5,0l-90.9-90.9L476.7,618V641.9z"/>
		</g>
	</g>
	<g>
		<path fill="#FFDF9F" d="M744.7,439.3c0,19.7-16,35.6-35.6,35.6c-19.7,0-35.6-16-35.6-35.6c0-19.7,16-35.6,35.6-35.6
			C728.8,403.7,744.7,419.6,744.7,439.3z"/>
		<path d="M709.1,477.5c-21,0-38.1-17.1-38.1-38.1c0-21,17.1-38.1,38.1-38.1s38.1,17.1,38.1,38.1
			C747.3,460.3,730.1,477.5,709.1,477.5z M709.1,406.2c-18.3,0-33.1,14.9-33.1,33.1c0,18.3,14.9,33.1,33.1,33.1s33.1-14.9,33.1-33.1
			C742.2,421,727.4,406.2,709.1,406.2z"/>
	</g>
	<g>
		<path fill="#FF9284" d="M1027.3,662.6c0,62.7-50.8,113.5-113.5,113.5s-113.5-50.8-113.5-113.5s50.8-113.5,113.5-113.5
			S1027.3,599.9,1027.3,662.6z"/>
		<path d="M913.8,778.6c-64,0-116-52-116-116s52-116,116-116s116,52,116,116S977.8,778.6,913.8,778.6z M913.8,551.6
			c-61.2,0-111,49.8-111,111s49.8,111,111,111c61.2,0,111-49.8,111-111S975,551.6,913.8,551.6z"/>
	</g>
	<g>
		<polygon fill="#FFFFFF" points="982.3,647 929.5,647 929.5,594.1 898.2,594.1 898.2,647 845.3,647 845.3,678.3 898.2,678.3 
			898.2,731.1 929.5,731.1 929.5,678.3 982.3,678.3 		"/>
		<path d="M929.5,733.6h-31.3c-1.4,0-2.5-1.1-2.5-2.5v-50.3h-50.3c-1.4,0-2.5-1.1-2.5-2.5V647c0-1.4,1.1-2.5,2.5-2.5h50.3v-50.3
			c0-1.4,1.1-2.5,2.5-2.5h31.3c1.4,0,2.5,1.1,2.5,2.5v50.3h50.3c1.4,0,2.5,1.1,2.5,2.5v31.3c0,1.4-1.1,2.5-2.5,2.5H932v50.3
			C932,732.5,930.9,733.6,929.5,733.6z M900.7,728.6H927v-50.3c0-1.4,1.1-2.5,2.5-2.5h50.3v-26.3h-50.3c-1.4,0-2.5-1.1-2.5-2.5
			v-50.3h-26.3V647c0,1.4-1.1,2.5-2.5,2.5h-50.3v26.3h50.3c1.4,0,2.5,1.1,2.5,2.5V728.6z"/>
	</g>
	<g>
		<path fill="#9EC860" d="M294.9,201.7h232.4c11,0,20.1,9,20.1,20.1v100.3v28.4v74.4L478,370.6H294.9c-11,0-20.1-9-20.1-20.1V221.8
			C274.8,210.7,283.8,201.7,294.9,201.7z"/>
		<path d="M547.4,427.4c-0.6,0-1.1-0.2-1.5-0.5l-68.7-53.8H294.9c-12.4,0-22.6-10.1-22.6-22.6V221.8c0-12.4,10.1-22.6,22.6-22.6
			h232.4c12.4,0,22.6,10.1,22.6,22.6v203.2c0,1-0.5,1.8-1.4,2.3C548.1,427.4,547.8,427.4,547.4,427.4z M294.9,204.2
			c-9.7,0-17.6,7.9-17.6,17.6v128.8c0,9.7,7.9,17.6,17.6,17.6H478c0.6,0,1.1,0.2,1.5,0.5l65.3,51.2v-198c0-9.7-7.9-17.6-17.6-17.6
			H294.9z"/>
	</g>
	<g>
		<g>
			<path fill="#FFFFFF" d="M345.4,253.1v47.4h28.5v30.2c10.7-1.8,18.9-11.2,18.9-22.4v-7.8v-47.4H345.4z"/>
			<path d="M373.9,333.3c-0.6,0-1.2-0.2-1.6-0.6c-0.6-0.5-0.9-1.2-0.9-1.9v-27.7h-26c-1.4,0-2.5-1.1-2.5-2.5v-47.4
				c0-1.4,1.1-2.5,2.5-2.5h47.4c1.4,0,2.5,1.1,2.5,2.5v55.2c0,12.3-8.8,22.8-21,24.9C374.2,333.3,374.1,333.3,373.9,333.3z
				 M347.9,298.1h26c1.4,0,2.5,1.1,2.5,2.5v27c8.2-2.7,13.9-10.4,13.9-19.2v-52.7h-42.4V298.1z"/>
		</g>
		<g>
			<path fill="#FFFFFF" d="M424.3,253.1v47.4h28.5v30.2c10.7-1.8,18.9-11.2,18.9-22.4v-7.8v-47.4H424.3z"/>
			<path d="M452.8,333.3c-0.6,0-1.2-0.2-1.6-0.6c-0.6-0.5-0.9-1.2-0.9-1.9v-27.7h-26c-1.4,0-2.5-1.1-2.5-2.5v-47.4
				c0-1.4,1.1-2.5,2.5-2.5h47.4c1.4,0,2.5,1.1,2.5,2.5v55.2c0,12.3-8.8,22.8-21,24.9C453.1,333.3,453,333.3,452.8,333.3z
				 M426.8,298.1h26c1.4,0,2.5,1.1,2.5,2.5v27c8.2-2.7,13.9-10.4,13.9-19.2v-52.7h-42.4V298.1z"/>
		</g>
	</g>
	<g>
		<path d="M759.2,620.5c-0.6,0-1.3-0.2-1.8-0.7l-50.3-50.3c-1-1-1-2.6,0-3.5c1-1,2.6-1,3.5,0l50.3,50.3c1,1,1,2.6,0,3.5
			C760.5,620.2,759.9,620.5,759.2,620.5z"/>
	</g>
	<g>
		<path d="M700.8,610.8c-0.6,0-1.3-0.2-1.8-0.7l-79.2-79.2c-1-1-1-2.6,0-3.5c1-1,2.6-1,3.5,0l79.2,79.2c1,1,1,2.6,0,3.5
			C702.1,610.5,701.4,610.8,700.8,610.8z"/>
	</g>
	<g>
		<path d="M812,577.7c-0.6,0-1.3-0.2-1.8-0.7l-37.4-37.4c-1-1-1-2.6,0-3.5c1-1,2.6-1,3.5,0l37.4,37.4c1,1,1,2.6,0,3.5
			C813.3,577.5,812.6,577.7,812,577.7z"/>
	</g>
	<g>
		<path d="M828.7,445h-60.8c-1.4,0-2.5-1.1-2.5-2.5c0-1.4,1.1-2.5,2.5-2.5h60.8c1.4,0,2.5,1.1,2.5,2.5
			C831.2,443.9,830.1,445,828.7,445z"/>
	</g>
	<g>
		<path d="M817.4,470.7h-27c-1.4,0-2.5-1.1-2.5-2.5c0-1.4,1.1-2.5,2.5-2.5h27c1.4,0,2.5,1.1,2.5,2.5
			C819.9,469.6,818.8,470.7,817.4,470.7z"/>
	</g>
	<g>
		<path d="M648.1,441.8h-58.9c-1.4,0-2.5-1.1-2.5-2.5c0-1.4,1.1-2.5,2.5-2.5h58.9c1.4,0,2.5,1.1,2.5,2.5
			C650.6,440.7,649.5,441.8,648.1,441.8z"/>
	</g>
	<g>
		<path d="M637.4,412h-37.6c-1.4,0-2.5-1.1-2.5-2.5c0-1.4,1.1-2.5,2.5-2.5h37.6c1.4,0,2.5,1.1,2.5,2.5
			C640,410.8,638.8,412,637.4,412z"/>
	</g>
	<g>
		<path fill="#FFFFFF" d="M1136.9,306.8l-17.6,2.4l-17.6-2.4l-38.8,10.3v36.5c15,13.5,34.7,21.7,56.4,21.7
			c21.7,0,41.4-8.3,56.4-21.7V317L1136.9,306.8z"/>
		<path d="M1119.3,377.7c-21.4,0-42-7.9-58.1-22.4c-0.5-0.5-0.8-1.2-0.8-1.9V317c0-1.1,0.8-2.1,1.9-2.4l38.8-10.3
			c0.3-0.1,0.7-0.1,1-0.1l17.3,2.3l17.3-2.3c0.3,0,0.7,0,1,0.1l38.8,10.3c1.1,0.3,1.9,1.3,1.9,2.4v36.5c0,0.7-0.3,1.4-0.8,1.9
			C1161.3,369.8,1140.7,377.7,1119.3,377.7z M1065.4,352.4c15,13.1,34.1,20.3,53.9,20.3c19.8,0,38.9-7.2,53.9-20.3v-33.4l-36.4-9.6
			l-17.2,2.3c-0.2,0-0.4,0-0.7,0l-17.2-2.3l-36.4,9.6V352.4z"/>
	</g>
	<g>
		<path fill="#00C1F8" d="M1203.8,290.7c0-46.7-37.8-84.5-84.5-84.5s-84.5,37.8-84.5,84.5c0,25,10.9,47.3,28.1,62.8V317l38.8-10.3
			l17.6,2.4l17.6-2.4l38.8,10.3v36.5C1192.9,338,1203.8,315.7,1203.8,290.7z"/>
		<path d="M1175.7,356c-0.3,0-0.7-0.1-1-0.2c-0.9-0.4-1.5-1.3-1.5-2.3v-34.6l-36.4-9.6l-17.2,2.3c-0.2,0-0.4,0-0.7,0l-17.2-2.3
			l-36.4,9.6v34.6c0,1-0.6,1.9-1.5,2.3c-0.9,0.4-2,0.2-2.7-0.4c-18.4-16.5-28.9-40.1-28.9-64.6c0-48,39-87,87-87c48,0,87,39,87,87
			c0,24.6-10.5,48.1-28.9,64.6C1176.9,355.8,1176.3,356,1175.7,356z M1136.9,304.3c0.2,0,0.4,0,0.6,0.1l38.8,10.3
			c1.1,0.3,1.9,1.3,1.9,2.4v30.6c14.7-15.3,23.1-35.7,23.1-56.9c0-45.2-36.8-82-82-82s-82,36.8-82,82c0,21.2,8.3,41.6,23.1,56.9V317
			c0-1.1,0.8-2.1,1.9-2.4l38.8-10.3c0.3-0.1,0.7-0.1,1-0.1l17.3,2.3l17.3-2.3C1136.7,304.3,1136.8,304.3,1136.9,304.3z"/>
	</g>
	<g>
		<path fill="#FFFFFF" d="M1148.8,266.1c0,16.3-13.2,29.6-29.6,29.6c-16.3,0-29.6-13.2-29.6-29.6c0-16.3,13.2-29.6,29.6-29.6
			C1135.6,236.6,1148.8,249.8,1148.8,266.1z"/>
		<path d="M1119.3,298.2c-17.7,0-32.1-14.4-32.1-32.1c0-17.7,14.4-32.1,32.1-32.1c17.7,0,32.1,14.4,32.1,32.1
			C1151.3,283.8,1136.9,298.2,1119.3,298.2z M1119.3,239.1c-14.9,0-27.1,12.1-27.1,27.1c0,14.9,12.1,27.1,27.1,27.1
			c14.9,0,27.1-12.1,27.1-27.1C1146.3,251.2,1134.2,239.1,1119.3,239.1z"/>
	</g>
	<g>
		<path fill="#FFFFFF" d="M1260.5,572.8c-6.8,2.9-17.9,2.9-24.7,0l-24-10.3c-6.8-2.9-17.9-2.9-24.7,0l-24,10.3
			c-6.8,2.9-17.9,2.9-24.7,0l-24-10.3c-6.8-2.9-17.9-2.9-24.7,0l-24,10.3c-6.8,2.9-17.9,2.9-24.7,0l-34.8-14.9v247.9
			c0,19-15.4,34.4-34.4,34.4H1261c19,0,34.4-15.4,34.4-34.4V557.9L1260.5,572.8z"/>
		<path d="M1261,842.7H971.8c-1.4,0-2.5-1.1-2.5-2.5c0-1.4,1.1-2.5,2.5-2.5c17.6,0,31.9-14.3,31.9-31.9V557.9c0-0.8,0.4-1.6,1.1-2.1
			c0.7-0.5,1.6-0.5,2.4-0.2l34.8,14.9c5.9,2.5,16.8,2.5,22.7,0l24.1-10.3c3.6-1.5,8.3-2.4,13.3-2.4l0,0c5,0,9.7,0.8,13.3,2.4
			l24.1,10.3c5.9,2.5,16.8,2.5,22.7,0l24-10.3c7.2-3.1,19.5-3.1,26.6,0l24.1,10.3c5.9,2.5,16.8,2.5,22.7,0l34.8-14.9
			c0.8-0.3,1.7-0.3,2.4,0.2c0.7,0.5,1.1,1.2,1.1,2.1v247.9C1297.9,826.1,1281.3,842.7,1261,842.7z M990.3,837.6H1261
			c17.6,0,31.9-14.3,31.9-31.9V561.7l-31.4,13.4c-7.2,3.1-19.5,3.1-26.6,0l-24.1-10.3c-5.9-2.5-16.8-2.5-22.7,0l-24.1,10.3
			c-7.2,3.1-19.5,3.1-26.6,0l-24.1-10.3c-5.9-2.5-16.8-2.5-22.7,0l-24.1,10.3c-7.2,3.1-19.5,3.1-26.6,0l-31.3-13.4v244.1
			C1008.7,819.3,1001.3,831.2,990.3,837.6z"/>
	</g>
	<g>
		<rect x="1044.2" y="611.5" fill="#9EC860" width="95.4" height="95.4"/>
		<path d="M1139.6,709.4h-95.4c-1.4,0-2.5-1.1-2.5-2.5v-95.4c0-1.4,1.1-2.5,2.5-2.5h95.4c1.4,0,2.5,1.1,2.5,2.5v95.4
			C1142.1,708.3,1141,709.4,1139.6,709.4z M1046.7,704.4h90.4V614h-90.4V704.4z"/>
	</g>
	<g>
		<rect x="1158.9" y="629" fill="#D1D3D4" width="101.4" height="19.3"/>
		<path d="M1260.4,650.8h-101.4c-1.4,0-2.5-1.1-2.5-2.5V629c0-1.4,1.1-2.5,2.5-2.5h101.4c1.4,0,2.5,1.1,2.5,2.5v19.3
			C1262.9,649.7,1261.8,650.8,1260.4,650.8z M1161.4,645.8h96.4v-14.3h-96.4V645.8z"/>
	</g>
	<g>
		<rect x="1158.9" y="670" fill="#D1D3D4" width="101.4" height="19.3"/>
		<path d="M1260.4,691.9h-101.4c-1.4,0-2.5-1.1-2.5-2.5V670c0-1.4,1.1-2.5,2.5-2.5h101.4c1.4,0,2.5,1.1,2.5,2.5v19.3
			C1262.9,690.8,1261.8,691.9,1260.4,691.9z M1161.4,686.9h96.4v-14.3h-96.4V686.9z"/>
	</g>
	<g>
		<rect x="1044.2" y="728" fill="#D1D3D4" width="216.1" height="19.3"/>
		<path d="M1260.4,749.8h-216.1c-1.4,0-2.5-1.1-2.5-2.5V728c0-1.4,1.1-2.5,2.5-2.5h216.1c1.4,0,2.5,1.1,2.5,2.5v19.3
			C1262.9,748.7,1261.8,749.8,1260.4,749.8z M1046.7,744.8h211.1v-14.3h-211.1V744.8z"/>
	</g>
	<g>
		<rect x="1044.2" y="770.9" fill="#D1D3D4" width="216.1" height="19.3"/>
		<path d="M1260.4,792.7h-216.1c-1.4,0-2.5-1.1-2.5-2.5v-19.3c0-1.4,1.1-2.5,2.5-2.5h216.1c1.4,0,2.5,1.1,2.5,2.5v19.3
			C1262.9,791.6,1261.8,792.7,1260.4,792.7z M1046.7,787.7h211.1v-14.3h-211.1V787.7z"/>
	</g>
	<g>
		<polygon fill="#FFFFFF" points="1124.3,706.9 1124.3,675.4 1102,669.5 1091.9,670.9 1081.8,669.5 1059.5,675.4 1059.5,706.9 		"/>
		<path d="M1124.3,709.4h-64.7c-1.4,0-2.5-1.1-2.5-2.5v-31.5c0-1.1,0.8-2.1,1.9-2.4l22.2-5.9c0.3-0.1,0.7-0.1,1-0.1l9.8,1.3l9.8-1.3
			c0.3,0,0.7,0,1,0.1l22.2,5.9c1.1,0.3,1.9,1.3,1.9,2.4v31.5C1126.8,708.3,1125.7,709.4,1124.3,709.4z M1062.1,704.4h59.7v-27.1
			l-19.9-5.3l-9.6,1.3c-0.2,0-0.4,0-0.7,0l-9.6-1.3l-19.9,5.3V704.4z"/>
	</g>
	<g>
		<path fill="#FFFFFF" d="M1108.9,646.2c0,9.4-7.6,17-17,17s-17-7.6-17-17c0-9.4,7.6-17,17-17S1108.9,636.8,1108.9,646.2z"/>
		<path d="M1091.9,665.7c-10.7,0-19.5-8.7-19.5-19.5c0-10.7,8.7-19.5,19.5-19.5c10.7,0,19.5,8.7,19.5,19.5
			C1111.4,656.9,1102.7,665.7,1091.9,665.7z M1091.9,631.7c-8,0-14.5,6.5-14.5,14.5c0,8,6.5,14.5,14.5,14.5c8,0,14.5-6.5,14.5-14.5
			C1106.4,638.2,1099.9,631.7,1091.9,631.7z"/>
	</g>
	<g>
		<path fill="#FF9284" d="M1084.6,289.6c9.5-12.5,15.1-27.2,15.1-42.9c0-45.7-46.5-82.8-103.8-82.8c-57.3,0-103.8,37.1-103.8,82.8
			c0,45.7,46.4,82.8,103.8,82.8c22.9,0,44-6,61.1-16l53.7,27.5L1084.6,289.6z"/>
		<path d="M1110.8,343.5c-0.4,0-0.8-0.1-1.1-0.3l-52.4-26.9C1039.1,326.6,1018,332,996,332c-58.6,0-106.3-38.3-106.3-85.3
			c0-47,47.7-85.3,106.3-85.3c58.6,0,106.3,38.3,106.3,85.3c0,15.1-5.1,30-14.7,43.1l25.4,50c0.5,1,0.3,2.1-0.5,2.9
			C1112.1,343.2,1111.4,343.5,1110.8,343.5z M1057.1,311c0.4,0,0.8,0.1,1.1,0.3l46.8,24l-22.6-44.5c-0.4-0.9-0.3-1.9,0.2-2.7
			c9.5-12.6,14.6-26.9,14.6-41.3c0-44.3-45.4-80.3-101.2-80.3s-101.2,36-101.2,80.3c0,44.3,45.4,80.3,101.2,80.3
			c21.6,0,42.3-5.4,59.9-15.7C1056.2,311.1,1056.7,311,1057.1,311z"/>
	</g>
	<g>
		<path fill="#FFFFFF" d="M1038.5,217.2l-3.1-3c-1.4-1.4-2.9-2.6-4.5-3.6c-2.9-1.8-6-3-9.3-3.6c-8-1.4-16.7,0.9-22.9,7.2L994,219
			l-4.8-4.8c-6.2-6.2-14.8-8.6-22.9-7.2c-3.2,0.6-6.4,1.8-9.3,3.6c-1.6,1-3.1,2.2-4.5,3.6l-3,3.1c-10.1,10.1-10.1,26.5,0,36.6
			l4.8,4.8l39.7,39.7l39.7-39.7l4.8-4.8C1048.6,243.7,1048.6,227.3,1038.5,217.2z"/>
		<path d="M994,300.8c-0.7,0-1.3-0.3-1.8-0.7l-44.5-44.5c-5.4-5.4-8.3-12.5-8.3-20.1s3-14.7,8.3-20.1l3-3c1.4-1.4,3.1-2.8,4.9-3.9
			c3.1-2,6.5-3.3,10.2-4c9.1-1.6,18.6,1.3,25.1,7.9l3,3l3-3c6.5-6.5,16-9.5,25.1-7.9c3.6,0.6,7.1,2,10.2,4c1.8,1.1,3.5,2.5,4.9,3.9
			l3,3c11.1,11.1,11.1,29.1,0,40.2l-44.5,44.5C995.3,300.5,994.6,300.8,994,300.8z M970.9,209.1c-1.4,0-2.8,0.1-4.1,0.4
			c-3,0.5-5.8,1.6-8.4,3.3c-1.5,1-2.9,2-4,3.2l-3,3c-4.4,4.4-6.9,10.3-6.9,16.5s2.4,12.1,6.8,16.5l42.7,42.7l42.7-42.7
			c9.1-9.1,9.1-23.9,0-33.1l-3-3c-1.2-1.2-2.5-2.3-4-3.2c-2.6-1.6-5.4-2.7-8.4-3.3c-7.5-1.3-15.3,1.1-20.7,6.5l-4.8,4.8
			c-1,1-2.6,1-3.5,0l-4.8-4.8C983,211.5,977.1,209.1,970.9,209.1z"/>
	</g>
	<g>
		<path fill="#FF9284" d="M304,504.8c0-45.9-37.3-83.2-83.2-83.2s-83.2,37.3-83.2,83.2c0,14.5,3.7,28.2,10.3,40l0,0l0.1,0.2
			c0.8,1.5,1.7,2.9,2.6,4.4l70.2,117.5L291,549.4c0.9-1.4,1.8-2.9,2.6-4.4l0.1-0.2h0C300.3,532.9,304,519.3,304,504.8z M220.8,553.9
			c-27.3,0-49.5-22.1-49.5-49.5c0-27.3,22.2-49.5,49.5-49.5c27.3,0,49.5,22.2,49.5,49.5C270.3,531.7,248.2,553.9,220.8,553.9z"/>
		<path d="M220.8,669.4c-0.9,0-1.7-0.5-2.2-1.2l-70.2-117.5c-0.9-1.4-1.8-2.9-2.6-4.4c-7-12.8-10.7-27.1-10.7-41.5
			c0-47.3,38.4-85.7,85.7-85.7c47.3,0,85.7,38.4,85.7,85.7c0,14.4-3.7,28.7-10.6,41.3c-1,1.8-1.9,3.2-2.8,4.7L223,668.2
			C222.5,668.9,221.7,669.4,220.8,669.4z M220.8,424.1c-44.5,0-80.7,36.2-80.7,80.7c0,13.6,3.4,27,9.9,38.8c0.9,1.7,1.8,3.1,2.7,4.4
			l68.1,114l68-113.9c0.9-1.5,1.8-2.9,2.6-4.3c6.6-12.1,10.1-25.5,10.1-39C301.5,460.3,265.3,424.1,220.8,424.1z M220.8,556.4
			c-28.7,0-52-23.3-52-52c0-28.7,23.3-52,52-52c28.7,0,52,23.3,52,52C272.8,533.1,249.5,556.4,220.8,556.4z M220.8,457.4
			c-25.9,0-47,21.1-47,47c0,25.9,21.1,47,47,47c25.9,0,47-21.1,47-47C267.8,478.5,246.7,457.4,220.8,457.4z"/>
	</g>
	<g>
		<path d="M809.3,71.9h-80.4c-1.4,0-2.5-1.1-2.5-2.5c0-1.4,1.1-2.5,2.5-2.5h80.4c1.4,0,2.5,1.1,2.5,2.5
			C811.9,70.7,810.7,71.9,809.3,71.9z"/>
	</g>
	<g>
		<path d="M820.6,268.6H619.9c-12.4,0-22.6-10.1-22.6-22.6v-67.3c0-1.4,1.1-2.5,2.5-2.5h62.6c1.4,0,2.5,1.1,2.5,2.5
			c0,30.5,24.8,55.3,55.3,55.3c30.5,0,55.3-24.8,55.3-55.3c0-1.4,1.1-2.5,2.5-2.5h62.6c1.4,0,2.5,1.1,2.5,2.5v67.3
			C843.1,258.5,833,268.6,820.6,268.6z M602.3,181.2v64.8c0,9.7,7.9,17.6,17.6,17.6h200.7c9.7,0,17.6-7.9,17.6-17.6v-64.8h-57.6
			c-1.3,32.1-27.9,57.8-60.3,57.8c-32.4,0-59-25.7-60.3-57.8H602.3z"/>
	</g>
	<g>
		<path d="M840.6,181.2h-62.6c-1.4,0-2.5-1.1-2.5-2.5c0-30.5-24.8-55.3-55.3-55.3c-30.5,0-55.3,24.8-55.3,55.3
			c0,1.4-1.1,2.5-2.5,2.5h-62.6c-1.4,0-2.5-1.1-2.5-2.5v-67.3c0-12.4,10.1-22.6,22.6-22.6h200.7c12.4,0,22.6,10.1,22.6,22.6v67.3
			C843.1,180.1,842,181.2,840.6,181.2z M780.5,176.2h57.6v-64.8c0-9.7-7.9-17.6-17.6-17.6H619.9c-9.7,0-17.6,7.9-17.6,17.6v64.8
			h57.6c1.3-32.1,27.9-57.8,60.3-57.8C752.7,118.4,779.2,144.1,780.5,176.2z M821.8,138.1h-40.1c-1.4,0-2.5-1.1-2.5-2.5v-25.5
			c0-1.4,1.1-2.5,2.5-2.5h40.1c1.4,0,2.5,1.1,2.5,2.5v25.5C824.3,137,823.2,138.1,821.8,138.1z M784.2,133.1h35.1v-20.5h-35.1V133.1
			z"/>
	</g>
	<g>
		<path fill="#D1D3D4" d="M720.2,236.6c31.9,0,57.9-25.9,57.9-57.8c0-32-25.9-57.9-57.9-57.9c-31.9,0-57.8,25.9-57.8,57.9
			C662.4,210.7,688.3,236.6,720.2,236.6z M720.2,142.4c20.1,0,36.3,16.3,36.3,36.3c0,20.1-16.3,36.3-36.3,36.3
			c-20.1,0-36.3-16.3-36.3-36.3C683.9,158.7,700.2,142.4,720.2,142.4z"/>
		<path d="M720.2,239.1c-33.3,0-60.4-27.1-60.4-60.4c0-33.3,27.1-60.4,60.4-60.4c33.3,0,60.4,27.1,60.4,60.4
			C780.6,212,753.5,239.1,720.2,239.1z M720.2,123.4c-30.5,0-55.3,24.8-55.3,55.3c0,30.5,24.8,55.3,55.3,55.3
			c30.5,0,55.3-24.8,55.3-55.3C775.6,148.2,750.7,123.4,720.2,123.4z M720.2,217.6c-21.4,0-38.8-17.4-38.8-38.8
			c0-21.4,17.4-38.8,38.8-38.8c21.4,0,38.8,17.4,38.8,38.8C759.1,200.1,741.6,217.6,720.2,217.6z M720.2,144.9
			c-18.6,0-33.8,15.2-33.8,33.8c0,18.6,15.2,33.8,33.8,33.8c18.6,0,33.8-15.2,33.8-33.8C754,160.1,738.9,144.9,720.2,144.9z"/>
	</g>
	<g>
		<circle fill="#00C1F8" cx="720.2" cy="178.7" r="36.3"/>
		<path d="M720.2,217.6c-21.4,0-38.8-17.4-38.8-38.8c0-21.4,17.4-38.8,38.8-38.8c21.4,0,38.8,17.4,38.8,38.8
			C759.1,200.1,741.6,217.6,720.2,217.6z M720.2,144.9c-18.6,0-33.8,15.2-33.8,33.8c0,18.6,15.2,33.8,33.8,33.8
			c18.6,0,33.8-15.2,33.8-33.8C754,160.1,738.9,144.9,720.2,144.9z"/>
	</g>
	<g>
		<rect x="781.7" y="110.1" fill="#FFDF9F" width="40.1" height="25.5"/>
		<path d="M821.8,138.1h-40.1c-1.4,0-2.5-1.1-2.5-2.5v-25.5c0-1.4,1.1-2.5,2.5-2.5h40.1c1.4,0,2.5,1.1,2.5,2.5v25.5
			C824.3,137,823.2,138.1,821.8,138.1z M784.2,133.1h35.1v-20.5h-35.1V133.1z"/>
	</g>
	<g>
		<rect x="631.1" y="69.4" fill="#D1D3D4" width="36.5" height="22"/>
		<path d="M667.5,93.8h-36.5c-1.4,0-2.5-1.1-2.5-2.5v-22c0-1.4,1.1-2.5,2.5-2.5h36.5c1.4,0,2.5,1.1,2.5,2.5v22
			C670.1,92.7,668.9,93.8,667.5,93.8z M633.6,88.8H665V71.9h-31.4V88.8z"/>
	</g>
	<g>
		<path d="M235.2,265.5c-1.4,0-2.5-1.1-2.5-2.5v-60.2c0-23.5,19.1-42.6,42.6-42.6h60.2c1.4,0,2.5,1.1,2.5,2.5c0,1.4-1.1,2.5-2.5,2.5
			h-60.2c-20.7,0-37.6,16.9-37.6,37.6V263C237.7,264.4,236.6,265.5,235.2,265.5z"/>
	</g>
	<g>
		<path d="M817.4,725H673.5c-1.4,0-2.5-1.1-2.5-2.5s1.1-2.5,2.5-2.5h143.9c1.4,0,2.5,1.1,2.5,2.5S818.8,725,817.4,725z"/>
	</g>
	<g>
		<path d="M838.3,749.8h-70.4c-1.4,0-2.5-1.1-2.5-2.5c0-1.4,1.1-2.5,2.5-2.5h70.4c1.4,0,2.5,1.1,2.5,2.5
			C840.8,748.7,839.7,749.8,838.3,749.8z"/>
	</g>
	<g>
		<path d="M982.3,506.5h-36.5c-1.4,0-2.5-1.1-2.5-2.5s1.1-2.5,2.5-2.5h36.5c1.4,0,2.5,1.1,2.5,2.5S983.7,506.5,982.3,506.5z"/>
	</g>
	<g>
		<path d="M1034.8,535.3h-89c-1.4,0-2.5-1.1-2.5-2.5s1.1-2.5,2.5-2.5h89c1.4,0,2.5,1.1,2.5,2.5S1036.2,535.3,1034.8,535.3z"/>
	</g>
	<g>
		<path d="M630.8,921.9h-224c-1.4,0-2.5-1.1-2.5-2.5V751.5c0-1.4,1.1-2.5,2.5-2.5h224c1.4,0,2.5,1.1,2.5,2.5v167.9
			C633.3,920.8,632.1,921.9,630.8,921.9z M409.2,916.9h219V754h-219V916.9z"/>
	</g>
	<g>
		<g>
			<path fill="#231F20" d="M588.5,888.7h-79.3c-1.4,0-2.5-1.1-2.5-2.5v-67.6c0-0.7,0.3-1.4,0.8-1.9l25.4-22.7v-21.9
				c0-1.6,1.2-3.1,2.8-3.4c0,0,3.1-0.6,6.9-0.6c15.5,0,17.2,9.2,17.2,13.2v34.7h28.7c8.1,0,14.7,6.6,14.7,14.7V874
				C603.3,882.1,596.6,888.7,588.5,888.7z M511.7,883.7h76.8c5.4,0,9.7-4.4,9.7-9.7v-43.1c0-5.4-4.4-9.7-9.7-9.7h-31.2
				c-1.4,0-2.5-1.1-2.5-2.5v-37.2c0-5.4-4.1-8.2-12.1-8.2c-1.9,0-3.6,0.2-4.7,0.3v21.7c0,0.7-0.3,1.4-0.8,1.9l-25.4,22.7V883.7z"/>
		</g>
		<g>
			<path fill="#D1D3D4" d="M494.7,818.7h14.5v67.6h-14.5c-0.5,0-0.9-0.4-0.9-0.9v-65.7C493.8,819.1,494.2,818.7,494.7,818.7z"/>
			<path d="M509.2,888.7h-14.5c-1.9,0-3.4-1.5-3.4-3.4v-65.7c0-1.9,1.5-3.4,3.4-3.4h14.5c1.4,0,2.5,1.1,2.5,2.5v67.6
				C511.7,887.6,510.6,888.7,509.2,888.7z M496.3,883.7h10.4v-62.6h-10.4V883.7z"/>
		</g>
	</g>
	<g>
		<rect x="406.7" y="803.7" fill="#00C1F8" width="87" height="82.5"/>
		<path d="M493.8,888.7h-87c-1.4,0-2.5-1.1-2.5-2.5v-82.5c0-1.4,1.1-2.5,2.5-2.5h87c1.4,0,2.5,1.1,2.5,2.5v82.5
			C496.3,887.6,495.2,888.7,493.8,888.7z M409.2,883.7h82v-77.5h-82V883.7z"/>
	</g>
	<g>
		<polygon fill="#FF9284" points="673.5,780.5 725.1,810.3 673.5,840.2 		"/>
		<path d="M673.5,842.7c-0.4,0-0.9-0.1-1.3-0.3c-0.8-0.4-1.3-1.3-1.3-2.2v-59.6c0-0.9,0.5-1.7,1.3-2.2c0.8-0.4,1.7-0.4,2.5,0
			l51.6,29.8c0.8,0.4,1.3,1.3,1.3,2.2s-0.5,1.7-1.3,2.2l-51.6,29.8C674.3,842.6,673.9,842.7,673.5,842.7z M676,784.9v50.9l44.1-25.5
			L676,784.9z"/>
	</g>
	<g>
		<polygon fill="#FF9284" points="749.5,780.5 801.1,810.3 749.5,840.2 		"/>
		<path d="M749.5,842.7c-0.4,0-0.9-0.1-1.3-0.3c-0.8-0.4-1.3-1.3-1.3-2.2v-59.6c0-0.9,0.5-1.7,1.3-2.2c0.8-0.4,1.7-0.4,2.5,0
			l51.6,29.8c0.8,0.4,1.3,1.3,1.3,2.2s-0.5,1.7-1.3,2.2l-51.6,29.8C750.3,842.6,749.9,842.7,749.5,842.7z M752,784.9v50.9l44.1-25.5
			L752,784.9z"/>
	</g>
	<g>
		<path d="M208.5,112.6h-81.9c-1.4,0-2.5-1.1-2.5-2.5c0-1.4,1.1-2.5,2.5-2.5h81.9c1.4,0,2.5,1.1,2.5,2.5
			C211,111.5,209.9,112.6,208.5,112.6z"/>
	</g>
	<g>
		<path d="M978.3,878.1h-81.9c-1.4,0-2.5-1.1-2.5-2.5s1.1-2.5,2.5-2.5h81.9c1.4,0,2.5,1.1,2.5,2.5S979.7,878.1,978.3,878.1z"/>
	</g>
	<g>
		<path d="M493,165.2h-81.9c-1.4,0-2.5-1.1-2.5-2.5c0-1.4,1.1-2.5,2.5-2.5H493c1.4,0,2.5,1.1,2.5,2.5
			C495.5,164,494.4,165.2,493,165.2z"/>
	</g>
	<g>
		<path d="M156.7,165.2h-30.1c-1.4,0-2.5-1.1-2.5-2.5c0-1.4,1.1-2.5,2.5-2.5h30.1c1.4,0,2.5,1.1,2.5,2.5
			C159.2,164,158.1,165.2,156.7,165.2z"/>
	</g>
	<g>
		<path d="M141.6,327.7h-30.1c-1.4,0-2.5-1.1-2.5-2.5c0-1.4,1.1-2.5,2.5-2.5h30.1c1.4,0,2.5,1.1,2.5,2.5
			C144.1,326.6,143,327.7,141.6,327.7z"/>
	</g>
	<g>
		<path d="M1263.4,531.5h-30.1c-1.4,0-2.5-1.1-2.5-2.5s1.1-2.5,2.5-2.5h30.1c1.4,0,2.5,1.1,2.5,2.5S1264.7,531.5,1263.4,531.5z"/>
	</g>
	<g>
		<path d="M928.9,118.9h-30.1c-1.4,0-2.5-1.1-2.5-2.5c0-1.4,1.1-2.5,2.5-2.5h30.1c1.4,0,2.5,1.1,2.5,2.5
			C931.4,117.8,930.3,118.9,928.9,118.9z"/>
	</g>
	<g>
		<path d="M304.9,888.7h-30.1c-1.4,0-2.5-1.1-2.5-2.5c0-1.4,1.1-2.5,2.5-2.5h30.1c1.4,0,2.5,1.1,2.5,2.5
			C307.4,887.6,306.3,888.7,304.9,888.7z"/>
	</g>
	<g>
		<path d="M384.2,118.9h-30.1c-1.4,0-2.5-1.1-2.5-2.5c0-1.4,1.1-2.5,2.5-2.5h30.1c1.4,0,2.5,1.1,2.5,2.5
			C386.7,117.8,385.6,118.9,384.2,118.9z"/>
	</g>
	<g>
		<path d="M187.6,382.9h-30.1c-1.4,0-2.5-1.1-2.5-2.5c0-1.4,1.1-2.5,2.5-2.5h30.1c1.4,0,2.5,1.1,2.5,2.5
			C190.1,381.8,188.9,382.9,187.6,382.9z"/>
	</g>
	<g>
		<path d="M836.9,878.1h-30.1c-1.4,0-2.5-1.1-2.5-2.5s1.1-2.5,2.5-2.5h30.1c1.4,0,2.5,1.1,2.5,2.5S838.2,878.1,836.9,878.1z"/>
	</g>
	<g>
		<path d="M141.6,254.1c-9.7,0-17.6-7.9-17.6-17.6c0-9.7,7.9-17.6,17.6-17.6s17.6,7.9,17.6,17.6
			C159.2,246.3,151.3,254.1,141.6,254.1z M141.6,224c-6.9,0-12.5,5.6-12.5,12.5c0,6.9,5.6,12.5,12.5,12.5c6.9,0,12.5-5.6,12.5-12.5
			C154.2,229.7,148.5,224,141.6,224z"/>
	</g>
	<g>
		<path d="M877.2,837.9c-9.7,0-17.6-7.9-17.6-17.6s7.9-17.6,17.6-17.6c9.7,0,17.6,7.9,17.6,17.6S886.9,837.9,877.2,837.9z
			 M877.2,807.8c-6.9,0-12.5,5.6-12.5,12.5s5.6,12.5,12.5,12.5c6.9,0,12.5-5.6,12.5-12.5S884.1,807.8,877.2,807.8z"/>
	</g>
	<g>
		<path d="M883.7,181.4c-9.7,0-17.6-7.9-17.6-17.6c0-9.7,7.9-17.6,17.6-17.6s17.6,7.9,17.6,17.6
			C901.3,173.6,893.4,181.4,883.7,181.4z M883.7,151.3c-6.9,0-12.5,5.6-12.5,12.5c0,6.9,5.6,12.5,12.5,12.5s12.5-5.6,12.5-12.5
			C896.3,157,890.7,151.3,883.7,151.3z"/>
	</g>
	<g>
		<path d="M235.2,853c-9.7,0-17.6-7.9-17.6-17.6c0-9.7,7.9-17.6,17.6-17.6c9.7,0,17.6,7.9,17.6,17.6
			C252.7,845.1,244.9,853,235.2,853z M235.2,822.9c-6.9,0-12.5,5.6-12.5,12.5c0,6.9,5.6,12.5,12.5,12.5c6.9,0,12.5-5.6,12.5-12.5
			C247.7,828.5,242.1,822.9,235.2,822.9z"/>
	</g>
	<g>
		<g>
			<path d="M220.6,344.2c-0.6,0-1.3-0.2-1.8-0.7l-33-33c-1-1-1-2.6,0-3.5s2.6-1,3.5,0l33,33c1,1,1,2.6,0,3.5
				C221.9,344,221.2,344.2,220.6,344.2z"/>
		</g>
		<g>
			<path d="M187.6,344.2c-0.6,0-1.3-0.2-1.8-0.7c-1-1-1-2.6,0-3.5l33-33c1-1,2.6-1,3.5,0c1,1,1,2.6,0,3.5l-33,33
				C188.8,344,188.2,344.2,187.6,344.2z"/>
		</g>
	</g>
	<g>
		<g>
			<path d="M361.9,854.5c-0.6,0-1.3-0.2-1.8-0.7l-33-33c-1-1-1-2.6,0-3.5c1-1,2.6-1,3.5,0l33,33c1,1,1,2.6,0,3.5
				C363.2,854.2,362.6,854.5,361.9,854.5z"/>
		</g>
		<g>
			<path d="M328.9,854.5c-0.6,0-1.3-0.2-1.8-0.7c-1-1-1-2.6,0-3.5l33-33c1-1,2.6-1,3.5,0c1,1,1,2.6,0,3.5l-33,33
				C330.2,854.2,329.6,854.5,328.9,854.5z"/>
		</g>
	</g>
</g>
</svg>
